<?xml version="1.0" encoding="utf-8"?>
<!-- Generator: Adobe Illustrator 27.5.0, SVG Export Plug-In . SVG Version: 6.00 Build 0)  -->
<svg version="1.1" xmlns="http://www.w3.org/2000/svg" xmlns:xlink="http://www.w3.org/1999/xlink" x="0px" y="0px"
	 viewBox="0 0 500 500" style="enable-background:new 0 0 500 500;" xml:space="preserve">
<g id="Background">
	<rect style="fill:#FFFFFF;" width="500" height="500"/>
	<rect style="display:none;fill:#FFFFFF;" width="500" height="500"/>
</g>
<g id="Objects_1_">
	<g>
		<path style="fill:#D6E3FE;" d="M458.571,419.586c0,11.673-93.246,21.137-208.271,21.137c-115.025,0-208.271-9.464-208.271-21.137
			c0-11.675,93.247-21.138,208.271-21.138C365.325,398.448,458.571,407.911,458.571,419.586z"/>
		<g>
			<g>
				<path style="fill:#BC74E1;" d="M151.846,341.841c-2.63,0.251-5.178,1.262-7.847,1.248c-3.218-0.017-2.859-10.277-3.244-12.877
					c-0.952-6.391-3.61-13.055-9.316-16.575c-5.387-3.323-12.627-2.696-17.315,1.443c-3.119,2.752-5.002,6.525-6.818,10.268
					c-1.465-1.526-3.039-2.859-3.9-3.701c-5.238-5.127-10.866-9.93-16.889-14.114c-4.627-3.218-10.869-7.238-16.762-6.861
					c-6.6,0.425-7.029,7.837-6.33,12.861c0.059,0.429,0.145,0.854,0.218,1.28c-1.842-1.435-3.714-2.83-5.624-4.174
					c-5.712-4.016-13.75-4.897-18.33,1.149c-0.137,0.179-0.227,0.356-0.299,0.53c-0.139,0.134-0.272,0.281-0.388,0.47
					c-3.915,6.301-0.464,13.371,5.172,17.303c1.963,1.371,4.006,2.639,6.065,3.872c-4.736,0.818-9.47,2.585-10.864,6.838
					c-1.789,5.44,3.803,10.007,7.261,13.176c5.407,4.95,12.119,8.626,18.617,11.945c3.438,1.756,7.048,3.705,10.786,5.057
					c-2.635,2.911-5.196,5.819-6.99,9.431c-2.797,5.65-0.659,12.709,3.892,16.778c5.099,4.558,12.184,4.631,18.574,3.53
					c2.449-0.421,12.605-4.542,13.881-2.213c1.151,2.102,1.275,4.963,1.684,7.275c0.604,3.398,2.063,6.582,4.453,9.093
					c4.585,4.807,11.63,5.148,17.807,4.42c7.13-0.846,14.165-3.483,20.641-6.473c3.54-1.633,6.986-3.465,10.451-5.244
					c1.646-0.842,4.906-3.786,6.873-3.357c1.048,0.399,2.146,0.159,2.994-0.459c0.247-0.175,0.465-0.382,0.653-0.611
					c0.001-0.001,0.001-0.001,0.001-0.001c0.046-0.059,0.093-0.116,0.137-0.177c0.023-0.029,0.045-0.06,0.065-0.092
					c0.022-0.028,0.041-0.064,0.059-0.094c0.042-0.063,0.081-0.126,0.119-0.191c0-0.002,0-0.002,0.001-0.003
					c0.147-0.259,0.262-0.535,0.334-0.827c0.277-1.012,0.106-2.125-0.645-2.964c-0.993-1.517,0.307-4.968,0.564-6.581
					c0.61-3.817,0.861-7.754,1.179-11.602c0.6-7.238,0.401-14.621-1.068-21.752c-1.254-6.1-4.078-12.568-9.891-15.53
					C158.645,341.725,155.328,341.51,151.846,341.841z"/>
				<path style="fill:#A364C8;" d="M101.928,329.602c0.078-0.835-0.53-1.573-1.362-1.653c-0.831-0.077-1.572,0.529-1.653,1.363
					l-1.992,20.705c-5.973-4.105-11.951-8.215-17.927-12.322l2.15-22.379c0.079-0.831-0.531-1.57-1.362-1.652
					c-0.834-0.078-1.574,0.529-1.653,1.363l-1.988,20.708c-6.629-4.558-13.256-9.112-19.884-13.666
					c-0.025-0.02-0.052-0.035-0.074-0.051c-1.61-1.107-3.328,1.388-1.717,2.496c0.025,0.016,0.049,0.033,0.076,0.053
					c6.627,4.555,13.255,9.107,19.883,13.663l-18.619,9.277c-0.747,0.372-1.053,1.282-0.68,2.03c0.373,0.749,1.283,1.055,2.03,0.68
					l20.121-10.027c5.977,4.107,11.95,8.216,17.93,12.324l-18.619,9.274c-0.748,0.376-1.052,1.285-0.68,2.033
					c0.377,0.75,1.284,1.056,2.033,0.68l20.12-10.025c6.437,4.423,12.877,8.849,19.312,13.273l-18.616,9.278
					c-0.747,0.371-1.053,1.282-0.677,2.031c0.373,0.748,1.279,1.051,2.028,0.68l20.123-10.028c7.01,4.821,14.021,9.638,21.033,14.46
					l-18.616,9.277c-0.749,0.37-1.054,1.279-0.681,2.028c0.373,0.749,1.283,1.055,2.03,0.683l20.122-10.029
					c6.255,4.301,12.509,8.6,18.766,12.899c1.61,1.107,3.326-1.392,1.715-2.498c-6.257-4.3-12.511-8.599-18.765-12.897l2.15-22.378
					c0.079-0.832-0.533-1.574-1.365-1.653c-0.834-0.076-1.569,0.53-1.65,1.363l-1.992,20.705
					c-7.011-4.818-14.022-9.635-21.034-14.456l2.15-22.377c0.078-0.834-0.531-1.576-1.363-1.654c-0.833-0.08-1.572,0.53-1.655,1.364
					l-1.988,20.704c-6.439-4.423-12.877-8.849-19.312-13.273L101.928,329.602z"/>
			</g>
			<g>
				<path style="fill:#08E1B6;" d="M202.078,318.831c-3.316-0.814-6.852-0.663-10.104-1.813c-3.922-1.388,0.878-13.756,1.511-17.092
					c1.557-8.205,1.146-17.468-4.321-24.189c-5.161-6.343-14.264-8.656-21.745-5.598c-4.975,2.033-8.879,5.835-12.684,9.628
					c-1.138-2.484-2.495-4.777-3.187-6.171c-4.212-8.488-9.039-16.736-14.61-24.406c-4.279-5.893-10.188-13.449-17.541-15.493
					c-8.234-2.29-11.91,6.572-13.193,13.003c-0.108,0.547-0.186,1.101-0.274,1.652c-1.64-2.532-3.333-5.033-5.092-7.481
					c-5.261-7.33-14.699-11.82-22.858-6.39c-0.239,0.159-0.425,0.337-0.59,0.521c-0.225,0.102-0.45,0.226-0.672,0.407
					c-7.455,6.024-6.25,16.119-1.043,23.315c1.814,2.509,3.772,4.922,5.756,7.305c-6.128-1.016-12.654-0.875-16.166,3.723
					c-4.491,5.882,0.39,13.833,3.263,19.168c4.494,8.343,11.123,15.678,17.642,22.49c3.445,3.602,7.024,7.521,11.011,10.754
					c-4.453,2.436-8.814,4.894-12.536,8.541c-5.819,5.704-6.207,15.229-2.385,22.129c4.284,7.732,12.9,10.832,21.166,12.202
					c3.168,0.528,17.316-0.187,17.882,3.199c0.511,3.055-0.556,6.6-1.038,9.597c-0.706,4.404-0.283,8.911,1.569,12.989
					c3.551,7.816,12.003,11.227,19.852,12.96c9.06,2.001,18.766,1.77,27.94,0.877c5.013-0.487,9.998-1.261,14.983-1.957
					c2.367-0.329,7.596-2.537,9.812-1.179c1.11,0.935,2.556,1.109,3.852,0.715c0.373-0.109,0.726-0.268,1.054-0.467
					c0.001-0.001,0.001-0.001,0.001-0.001c0.084-0.05,0.165-0.105,0.245-0.16c0.039-0.026,0.081-0.053,0.12-0.081
					c0.038-0.028,0.075-0.06,0.113-0.09c0.077-0.06,0.153-0.12,0.226-0.185c0-0.002,0-0.002,0.001-0.002
					c0.288-0.254,0.545-0.543,0.76-0.866c0.766-1.12,1.033-2.55,0.47-3.892c-0.565-2.274,2.491-5.934,3.49-7.794
					c2.364-4.395,4.345-9.093,6.368-13.654c3.81-8.578,6.704-17.672,7.944-26.997c1.061-7.979,0.366-17.073-5.471-23.161
					C210.425,321.577,206.469,319.907,202.078,318.831z"/>
				<path style="fill:#04C89B;" d="M146.365,282.674c0.45-0.981,0.021-2.143-0.961-2.595c-0.982-0.451-2.144-0.022-2.597,0.959
					l-11.229,24.425c-5.547-7.553-11.094-15.105-16.642-22.658l12.136-26.396c0.452-0.981,0.021-2.144-0.961-2.596
					c-0.982-0.451-2.144-0.021-2.597,0.961l-11.228,24.424c-6.152-8.377-12.304-16.753-18.456-25.128
					c-0.024-0.032-0.047-0.064-0.071-0.098c-1.494-2.034-4.648,0.284-3.154,2.318c0.023,0.032,0.047,0.065,0.071,0.097
					c6.151,8.377,12.304,16.752,18.455,25.127l-26.664,3.407c-1.072,0.138-1.83,1.117-1.693,2.19
					c0.138,1.073,1.117,1.831,2.189,1.693l28.817-3.683c5.547,7.553,11.094,15.105,16.642,22.659l-26.663,3.406
					c-1.072,0.138-1.83,1.118-1.692,2.191c0.136,1.072,1.117,1.83,2.188,1.693l28.817-3.683
					c5.975,8.136,11.952,16.272,17.927,24.407l-26.664,3.407c-1.071,0.138-1.83,1.118-1.692,2.191
					c0.137,1.073,1.117,1.83,2.188,1.694l28.817-3.683c6.508,8.86,13.016,17.721,19.524,26.583l-26.663,3.407
					c-1.073,0.138-1.831,1.116-1.694,2.189c0.137,1.072,1.118,1.831,2.189,1.694l28.817-3.683
					c5.807,7.906,11.612,15.812,17.419,23.717c1.495,2.035,4.65-0.282,3.154-2.318c-5.806-7.904-11.612-15.811-17.416-23.714
					l12.135-26.397c0.45-0.981,0.02-2.145-0.961-2.596c-0.983-0.45-2.143-0.021-2.596,0.962L174.33,363.67
					c-6.508-8.86-13.017-17.723-19.525-26.583l12.136-26.396c0.45-0.983,0.021-2.145-0.96-2.596
					c-0.983-0.452-2.144-0.022-2.597,0.959l-11.228,24.425c-5.977-8.137-11.952-16.272-17.927-24.41L146.365,282.674z"/>
			</g>
		</g>
		<g>
			<path style="fill:#08E1B6;" d="M341.265,348.53c-4.259,2.896-5.828,8.242-6.205,13.142c-0.442,5.729,0.135,11.528,1.323,17.136
				c0.629,2.98,1.217,6.039,2.073,8.964c0.36,1.239,1.722,3.811,1.095,5.099c-0.506,0.73-0.527,1.619-0.212,2.385
				c0.087,0.22,0.204,0.426,0.345,0.614c0.001,0,0.001,0,0,0.001c0.036,0.047,0.073,0.094,0.111,0.139
				c0.019,0.023,0.037,0.047,0.057,0.068c0.018,0.023,0.041,0.043,0.06,0.065c0.042,0.042,0.083,0.085,0.126,0.125
				c0,0,0,0,0.001,0.001c0.171,0.159,0.362,0.3,0.572,0.413c0.725,0.399,1.609,0.48,2.391,0.063c1.496-0.532,4.34,1.45,5.712,1.947
				c2.891,1.049,5.771,2.142,8.704,3.068c5.367,1.696,11.135,3.065,16.801,3.02c4.908-0.042,10.39-1.008,13.503-5.227
				c1.623-2.2,2.448-4.84,2.584-7.561c0.091-1.852-0.096-4.104,0.597-5.863c0.767-1.951,9.128,0.269,11.088,0.357
				c5.112,0.229,10.651-0.531,14.19-4.607c3.159-3.638,4.134-9.376,1.382-13.522c-1.761-2.65-4.055-4.673-6.406-6.691
				c2.791-1.427,5.426-3.314,7.941-5.028c4.758-3.243,9.647-6.785,13.39-11.198c2.393-2.823,6.317-6.953,4.379-11.036
				c-1.514-3.193-5.396-4.105-9.185-4.274c1.488-1.171,2.964-2.366,4.365-3.634c4.021-3.639,6.021-9.517,2.332-14.061
				c-0.109-0.136-0.229-0.239-0.35-0.328c-0.075-0.132-0.162-0.261-0.287-0.386c-4.185-4.278-10.393-2.792-14.465,0.919
				c-1.359,1.24-2.69,2.519-3.989,3.824c0.016-0.341,0.041-0.683,0.044-1.022c0.05-4.004-1.022-9.764-6.232-9.441
				c-4.651,0.289-9.139,4.054-12.442,7.031c-4.301,3.875-8.23,8.192-11.823,12.728c-0.59,0.744-1.691,1.943-2.687,3.283
				c-1.791-2.748-3.642-5.515-6.355-7.362c-4.081-2.774-9.814-2.547-13.7,0.589c-4.118,3.322-5.538,8.803-5.648,13.902
				c-0.044,2.074,1.255,10.07-1.263,10.401c-2.09,0.275-4.183-0.264-6.267-0.197C346.155,346.459,343.579,346.956,341.265,348.53z"
				/>
			<path style="fill:#04C89B;" d="M386.78,331.838c-0.145-0.644,0.26-1.283,0.903-1.43c0.643-0.144,1.283,0.26,1.43,0.903
				l3.612,16.015c4.271-3.809,8.541-7.617,12.813-11.426l-3.903-17.307c-0.145-0.646,0.26-1.283,0.902-1.43
				c0.646-0.145,1.285,0.26,1.431,0.903l3.611,16.014c4.736-4.224,9.474-8.447,14.21-12.672c0.018-0.016,0.038-0.032,0.055-0.047
				c1.149-1.027,2.742,0.758,1.591,1.784c-0.018,0.016-0.035,0.033-0.054,0.048c-4.736,4.225-9.474,8.448-14.211,12.672
				l15.496,5.414c0.623,0.218,0.952,0.9,0.734,1.522c-0.217,0.625-0.899,0.953-1.523,0.735l-16.748-5.853
				c-4.27,3.809-8.541,7.617-12.813,11.426l15.497,5.416c0.623,0.217,0.95,0.9,0.732,1.522c-0.218,0.625-0.898,0.954-1.523,0.734
				l-16.746-5.853c-4.602,4.103-9.203,8.205-13.803,12.309l15.495,5.415c0.621,0.219,0.951,0.899,0.733,1.523
				c-0.219,0.625-0.899,0.953-1.523,0.734l-16.749-5.853c-5.01,4.469-10.022,8.935-15.032,13.404l15.495,5.417
				c0.623,0.218,0.951,0.899,0.734,1.521c-0.218,0.623-0.9,0.953-1.523,0.735l-16.748-5.854c-4.472,3.986-8.941,7.973-13.412,11.959
				c-1.15,1.026-2.743-0.758-1.591-1.785c4.471-3.985,8.941-7.973,13.411-11.956l-3.904-17.309
				c-0.144-0.643,0.261-1.284,0.904-1.429c0.646-0.143,1.282,0.26,1.429,0.903l3.612,16.015c5.011-4.469,10.021-8.937,15.034-13.405
				l-3.903-17.308c-0.145-0.643,0.259-1.284,0.903-1.43c0.644-0.145,1.283,0.26,1.429,0.904l3.611,16.014
				c4.601-4.103,9.204-8.206,13.803-12.31L386.78,331.838z"/>
		</g>
		<g>
			<path style="fill:#BC74E1;" d="M354.527,210.314c-1.901,2.596-1.708,6.07-0.904,9.033c0.938,3.465,2.49,6.76,4.362,9.811
				c0.994,1.623,1.979,3.3,3.096,4.844c0.472,0.653,1.811,1.884,1.71,2.772c-0.143,0.536,0.028,1.064,0.375,1.448
				c0.097,0.112,0.209,0.209,0.331,0.29c0.001,0,0.001,0,0.001,0.001c0.031,0.02,0.062,0.04,0.095,0.058
				c0.015,0.01,0.031,0.021,0.047,0.028c0.017,0.01,0.032,0.018,0.049,0.026c0.033,0.016,0.066,0.032,0.1,0.047c0,0,0,0,0.001,0
				c0.134,0.059,0.276,0.102,0.423,0.123c0.511,0.084,1.048-0.054,1.42-0.463c0.771-0.626,2.859-0.054,3.771-0.048
				c1.921,0.013,3.844,0.054,5.765-0.014c3.515-0.122,7.196-0.524,10.522-1.736c2.881-1.052,5.906-2.767,6.856-5.9
				c0.494-1.636,0.429-3.362-0.061-4.992c-0.333-1.108-0.915-2.395-0.875-3.576c0.044-1.309,5.43-1.751,6.602-2.11
				c3.057-0.934,6.159-2.541,7.391-5.68c1.1-2.802,0.473-6.383-2.014-8.249c-1.593-1.192-3.365-1.902-5.172-2.599
				c1.345-1.424,2.501-3.085,3.624-4.622c2.123-2.904,4.261-6.013,5.54-9.393c0.818-2.163,2.266-5.415,0.27-7.412
				c-1.559-1.563-4.035-1.289-6.301-0.596c0.632-1.001,1.25-2.012,1.81-3.052c1.607-2.983,1.556-6.862-1.567-8.765
				c-0.093-0.057-0.184-0.092-0.274-0.121c-0.071-0.06-0.15-0.118-0.25-0.167c-3.358-1.644-6.701,0.529-8.323,3.565
				c-0.542,1.017-1.056,2.046-1.548,3.087c-0.063-0.205-0.118-0.41-0.188-0.612c-0.809-2.367-2.644-5.533-5.644-4.254
				c-2.677,1.143-4.531,4.3-5.854,6.743c-1.722,3.18-3.132,6.544-4.299,9.964c-0.191,0.562-0.589,1.498-0.895,2.495
				c-1.63-1.243-3.297-2.486-5.281-3.004c-2.982-0.781-6.31,0.552-7.942,3.211c-1.729,2.817-1.419,6.341-0.417,9.366
				c0.407,1.229,2.845,5.665,1.433,6.388c-1.173,0.599-2.518,0.72-3.731,1.194C356.973,208.071,355.56,208.902,354.527,210.314z"/>
			<path style="fill:#A364C8;" d="M377.831,190.968c-0.22-0.35-0.116-0.811,0.232-1.03c0.349-0.22,0.81-0.116,1.03,0.232
				l5.477,8.671c1.717-3.135,3.435-6.27,5.153-9.407l-5.918-9.372c-0.22-0.349-0.115-0.81,0.232-1.03
				c0.35-0.22,0.811-0.116,1.03,0.232l5.475,8.673c1.905-3.478,3.811-6.955,5.716-10.432c0.007-0.014,0.015-0.027,0.021-0.039
				c0.463-0.845,1.773-0.128,1.311,0.717c-0.008,0.013-0.015,0.026-0.022,0.04c-1.906,3.477-3.811,6.954-5.717,10.431l10.256-0.053
				c0.411-0.002,0.748,0.331,0.75,0.743c0.003,0.412-0.33,0.749-0.742,0.75l-11.084,0.056c-1.718,3.136-3.435,6.27-5.154,9.407
				l10.256-0.054c0.412-0.001,0.748,0.333,0.751,0.744c0.001,0.413-0.331,0.749-0.744,0.75l-11.083,0.057
				c-1.851,3.377-3.702,6.755-5.552,10.132l10.255-0.051c0.411-0.002,0.748,0.33,0.75,0.744c0.002,0.412-0.33,0.747-0.742,0.75
				l-11.085,0.056c-2.014,3.68-4.03,7.357-6.045,11.037l10.254-0.052c0.413-0.003,0.749,0.329,0.751,0.742
				c0.002,0.412-0.331,0.749-0.742,0.751l-11.085,0.056c-1.797,3.282-3.595,6.563-5.394,9.846c-0.463,0.845-1.773,0.127-1.311-0.718
				c1.799-3.282,3.597-6.564,5.395-9.845l-5.918-9.372c-0.219-0.349-0.114-0.812,0.234-1.031c0.35-0.218,0.808-0.115,1.028,0.233
				l5.477,8.671c2.016-3.678,4.031-7.355,6.047-11.035l-5.918-9.372c-0.22-0.35-0.116-0.811,0.232-1.03
				c0.35-0.221,0.81-0.116,1.031,0.233l5.475,8.671c1.852-3.377,3.702-6.755,5.552-10.132L377.831,190.968z"/>
		</g>
		<g>
			<polygon style="fill:#6833A3;" points="135.652,95.165 126.813,95.165 134.52,77.241 143.359,77.241 			"/>
			<polygon style="fill:#6833A3;" points="148.472,95.165 139.633,95.165 147.341,77.241 156.18,77.241 			"/>
			<polygon style="fill:#6833A3;" points="161.292,95.165 152.453,95.165 160.161,77.241 169,77.241 			"/>
			<polygon style="opacity:0.4;fill:#6833A3;" points="174.112,95.165 165.273,95.165 172.98,77.241 181.82,77.241 			"/>
			<polygon style="opacity:0.4;fill:#6833A3;" points="186.933,95.165 178.094,95.165 185.801,77.241 194.641,77.241 			"/>
			<polygon style="opacity:0.4;fill:#6833A3;" points="199.753,95.165 190.914,95.165 198.622,77.241 207.461,77.241 			"/>
			<polygon style="opacity:0.4;fill:#6833A3;" points="212.574,95.165 203.734,95.165 211.442,77.241 220.281,77.241 			"/>
		</g>
		<g>
			<path style="fill:none;stroke:#6833A3;stroke-miterlimit:10;" d="M425.467,130.762c0,4.085-3.311,7.396-7.395,7.396h-36.531
				c-4.086,0-7.396-3.312-7.396-7.396v-26.708c0-4.085,3.311-7.396,7.396-7.396h36.531c4.084,0,7.395,3.311,7.395,7.396V130.762z"/>
			<g>
				<rect x="392.529" y="115.475" style="fill:#6833A3;" width="14.553" height="3.866"/>
				<rect x="397.873" y="110.132" style="fill:#6833A3;" width="3.865" height="14.552"/>
			</g>
		</g>
		<path style="fill:#6833A3;" d="M148.653,142.598v-3.902h-5.634c-0.2-0.813-0.522-1.578-0.945-2.276l3.986-3.986l-2.759-2.76
			l-3.986,3.986c-0.698-0.424-1.462-0.746-2.276-0.946v-5.635h-3.903v5.635c-0.814,0.2-1.578,0.521-2.275,0.945l-3.987-3.987
			l-2.76,2.76l3.987,3.987c-0.424,0.698-0.745,1.462-0.946,2.275h-5.635v3.903h5.635c0.2,0.813,0.521,1.578,0.945,2.275
			l-3.986,3.987l2.76,2.76l3.986-3.987c0.698,0.424,1.462,0.746,2.275,0.946v5.635l3.902,0v-5.635
			c0.814-0.2,1.579-0.521,2.277-0.945l3.986,3.986l2.76-2.759l-3.986-3.986c0.424-0.698,0.746-1.462,0.946-2.276H148.653z
			 M135.087,144.363c-2.05,0-3.717-1.667-3.717-3.717s1.667-3.717,3.717-3.717c2.049,0,3.716,1.667,3.716,3.717
			S137.136,144.363,135.087,144.363z"/>
		<path style="fill:#BC74E1;" d="M258.146,89.684v-2.343h-3.383c-0.12-0.488-0.313-0.947-0.567-1.367l2.394-2.393l-1.657-1.657
			l-2.393,2.394c-0.419-0.255-0.878-0.448-1.366-0.568v-3.384h-2.344v3.384c-0.488,0.12-0.947,0.313-1.366,0.567l-2.394-2.394
			l-1.657,1.657l2.394,2.394c-0.255,0.419-0.447,0.878-0.567,1.366h-3.384v2.344h3.384c0.12,0.489,0.313,0.947,0.567,1.366
			l-2.394,2.394l1.657,1.657l2.394-2.394c0.418,0.254,0.877,0.448,1.366,0.568v3.383l2.343,0v-3.383
			c0.489-0.121,0.947-0.313,1.367-0.568l2.393,2.393l1.657-1.657l-2.394-2.393c0.255-0.419,0.447-0.878,0.568-1.367H258.146z
			 M250,90.744c-1.231,0-2.231-1.001-2.231-2.231s1-2.231,2.231-2.231c1.23,0,2.231,1.001,2.231,2.231S251.23,90.744,250,90.744z"/>
		<g>
			<path style="fill:#7CA1D6;" d="M347.467,117.171H180.598c-0.944,0-1.858,0.126-2.735,0.342l-0.447-1.867l-4.435,4.438
				c-0.332,0.295-0.645,0.609-0.941,0.941l-0.099,0.099l0.001,0.01c-1.745,2.011-2.808,4.629-2.808,7.501V417.79
				c0,6.332,5.133,11.464,11.465,11.464h166.869c6.332,0,11.464-5.132,11.464-11.464V128.636
				C358.931,122.304,353.799,117.171,347.467,117.171z"/>
			<g>
				<linearGradient id="SVGID_1_" gradientUnits="userSpaceOnUse" x1="268.4458" y1="424.8398" x2="268.4458" y2="112.7578">
					<stop  offset="0" style="stop-color:#3D1F81"/>
					<stop  offset="1" style="stop-color:#6B34A6"/>
				</linearGradient>
				<path style="fill:url(#SVGID_1_);" d="M363.345,413.376c0,6.332-5.133,11.464-11.465,11.464H185.011
					c-6.331,0-11.464-5.132-11.464-11.464V124.222c0-6.332,5.133-11.464,11.464-11.464H351.88c6.332,0,11.465,5.133,11.465,11.464
					V413.376z"/>
				<g>
					<path style="fill:#FFFFFF;" d="M301.574,132.745c0,1.361-1.103,2.464-2.464,2.464h-62.878c-1.361,0-2.464-1.103-2.464-2.464
						l0,0c0-1.36,1.103-2.463,2.464-2.463h62.878C300.471,130.281,301.574,131.384,301.574,132.745L301.574,132.745z"/>
					<path style="fill:#FFFFFF;" d="M319.719,132.745c0,2.389-1.937,4.326-4.325,4.326c-2.389,0-4.326-1.937-4.326-4.326
						c0-2.389,1.938-4.325,4.326-4.325C317.782,128.419,319.719,130.356,319.719,132.745z"/>
				</g>
			</g>
		</g>
		<g>
			<path style="fill:#5B8CDD;" d="M239.134,221.664c0,5.479-4.441,9.921-9.921,9.921H114.57c-5.479,0-9.921-4.442-9.921-9.921
				v-44.27c0-5.48,4.442-9.921,9.921-9.921h114.643c5.48,0,9.921,4.442,9.921,9.921V221.664z"/>
			<path style="fill:#A9C7F9;" d="M242.444,218.353c0,5.48-4.442,9.921-9.921,9.921H117.88c-5.479,0-9.921-4.441-9.921-9.921v-44.27
				c0-5.479,4.441-9.921,9.921-9.921h114.643c5.479,0,9.921,4.442,9.921,9.921V218.353z"/>
			
				<text transform="matrix(1 0 0 1 135.6491 209.418)" style="fill:#FFFFFF; font-family:'Montserrat-Black'; font-size:39.3691px; letter-spacing:7;">&lt;/&gt;</text>
		</g>
		<g>
			<rect x="259.195" y="158.355" style="opacity:0.4;fill:#FFFFFF;" width="91.891" height="5.905"/>
			<rect x="312.297" y="169.256" style="opacity:0.4;fill:#FFFFFF;" width="38.789" height="5.905"/>
			<rect x="335.354" y="197.873" style="opacity:0.4;fill:#FFFFFF;" width="15.731" height="5.904"/>
			<rect x="283.166" y="181.175" style="opacity:0.4;fill:#FFFFFF;" width="67.92" height="5.905"/>
			<rect x="263.28" y="197.873" style="opacity:0.4;fill:#FFFFFF;" width="61.587" height="5.904"/>
		</g>
		<polyline style="opacity:0.4;fill:none;stroke:#402083;stroke-width:4;stroke-miterlimit:10;" points="283.327,221.481 
			283.327,263.371 217.271,263.371 217.271,304.156 		"/>
		<polyline style="opacity:0.4;fill:none;stroke:#402083;stroke-width:4;stroke-miterlimit:10;" points="303.721,366.895 
			303.721,321.59 262.935,321.59 		"/>
		<g>
			<path style="fill:#008487;" d="M263.684,344.696c0,5.48-4.442,9.921-9.922,9.921h-99.195c-5.479,0-9.921-4.441-9.921-9.921
				v-44.27c0-5.479,4.441-9.921,9.921-9.921h99.195c5.479,0,9.922,4.441,9.922,9.921V344.696z"/>
			<path style="fill:#00CBDC;" d="M266.993,341.387c0,5.48-4.442,9.921-9.922,9.921h-99.195c-5.479,0-9.921-4.441-9.921-9.921
				v-44.27c0-5.48,4.442-9.921,9.921-9.921h99.195c5.479,0,9.922,4.441,9.922,9.921V341.387z"/>
			
				<text transform="matrix(1 0 0 1 171.3508 331.876)" style="fill:#FFFFFF; font-family:'Montserrat-Black'; font-size:33.2821px; letter-spacing:6;">C++</text>
		</g>
		<g>
			<g>
				<g>
					<g>
						<g>
							<g>
								<rect x="315.621" y="284.771" style="fill:none;" width="22.498" height="20.531"/>
							</g>
							<rect x="325.416" y="299.974" style="fill-rule:evenodd;clip-rule:evenodd;fill:#FFFFFF;" width="2.25" height="3.811"/>
							<rect x="325.416" y="293.139" style="fill-rule:evenodd;clip-rule:evenodd;fill:#FFFFFF;" width="2.25" height="3.81"/>
							<rect x="325.416" y="286.326" style="fill-rule:evenodd;clip-rule:evenodd;fill:#FFFFFF;" width="2.25" height="3.81"/>
						</g>
					</g>
					<g>
						<g>
							<g>
								<rect x="315.621" y="305.302" style="fill:none;" width="22.498" height="20.53"/>
							</g>
							<rect x="325.416" y="320.505" style="fill-rule:evenodd;clip-rule:evenodd;fill:#FFFFFF;" width="2.25" height="3.81"/>
							<rect x="325.416" y="313.67" style="fill-rule:evenodd;clip-rule:evenodd;fill:#FFFFFF;" width="2.25" height="3.811"/>
							<rect x="325.416" y="306.857" style="fill-rule:evenodd;clip-rule:evenodd;fill:#FFFFFF;" width="2.25" height="3.811"/>
						</g>
					</g>
					<g>
						<g>
							<g>
								<rect x="315.621" y="325.832" style="fill:none;" width="22.498" height="20.531"/>
							</g>
							<rect x="325.416" y="341.036" style="fill-rule:evenodd;clip-rule:evenodd;fill:#FFFFFF;" width="2.25" height="3.811"/>
							<rect x="325.416" y="334.201" style="fill-rule:evenodd;clip-rule:evenodd;fill:#FFFFFF;" width="2.25" height="3.81"/>
							<rect x="325.416" y="327.388" style="fill-rule:evenodd;clip-rule:evenodd;fill:#FFFFFF;" width="2.25" height="3.812"/>
						</g>
					</g>
					<g>
						<g>
							<g>
								<rect x="315.621" y="346.363" style="fill:none;" width="22.498" height="20.531"/>
							</g>
							<rect x="325.416" y="361.566" style="fill-rule:evenodd;clip-rule:evenodd;fill:#FFFFFF;" width="2.25" height="3.812"/>
							<rect x="325.416" y="354.731" style="fill-rule:evenodd;clip-rule:evenodd;fill:#FFFFFF;" width="2.25" height="3.812"/>
							<rect x="325.416" y="347.919" style="fill-rule:evenodd;clip-rule:evenodd;fill:#FFFFFF;" width="2.25" height="3.812"/>
						</g>
					</g>
				</g>
			</g>
		</g>
		<g>
			<path style="fill:#235098;" d="M443.347,288.265c0,5.48-4.441,9.921-9.921,9.921H318.783c-5.48,0-9.921-4.441-9.921-9.921v-44.27
				c0-5.479,4.441-9.921,9.921-9.921h114.643c5.48,0,9.921,4.442,9.921,9.921V288.265z"/>
			<path style="fill:#4883ED;" d="M446.657,284.954c0,5.479-4.441,9.921-9.921,9.921H322.094c-5.479,0-9.922-4.441-9.922-9.921
				v-44.27c0-5.479,4.442-9.921,9.922-9.921h114.643c5.479,0,9.921,4.442,9.921,9.921V284.954z"/>
			
				<text transform="matrix(1 0 0 1 334.0891 273.0889)" style="fill:#FFFFFF; font-family:'Montserrat-Black'; font-size:28.4478px; letter-spacing:5;">JAVA</text>
		</g>
		<g>
			<g>
				<g>
					<g>
						<g>
							<g>
								<g>
									<rect x="206.371" y="242.102" style="fill:none;" width="18.076" height="22.498"/>
								</g>
								<rect x="219.756" y="252.556" style="fill-rule:evenodd;clip-rule:evenodd;fill:#FFFFFF;" width="3.355" height="2.25"/>
								<rect x="213.738" y="252.556" style="fill-rule:evenodd;clip-rule:evenodd;fill:#FFFFFF;" width="3.355" height="2.25"/>
								<rect x="207.74" y="252.556" style="fill-rule:evenodd;clip-rule:evenodd;fill:#FFFFFF;" width="3.355" height="2.25"/>
							</g>
						</g>
						<g>
							<g>
								<g>
									<rect x="224.447" y="242.102" style="fill:none;" width="18.076" height="22.498"/>
								</g>
								<rect x="237.832" y="252.556" style="fill-rule:evenodd;clip-rule:evenodd;fill:#FFFFFF;" width="3.355" height="2.25"/>
								<rect x="231.814" y="252.556" style="fill-rule:evenodd;clip-rule:evenodd;fill:#FFFFFF;" width="3.355" height="2.25"/>
								<rect x="225.816" y="252.556" style="fill-rule:evenodd;clip-rule:evenodd;fill:#FFFFFF;" width="3.355" height="2.25"/>
							</g>
						</g>
						<g>
							<g>
								<g>
									<rect x="242.522" y="242.102" style="fill:none;" width="18.076" height="22.498"/>
								</g>
								<rect x="255.908" y="252.556" style="fill-rule:evenodd;clip-rule:evenodd;fill:#FFFFFF;" width="3.354" height="2.25"/>
								<rect x="249.89" y="252.556" style="fill-rule:evenodd;clip-rule:evenodd;fill:#FFFFFF;" width="3.355" height="2.25"/>
								<rect x="243.892" y="252.556" style="fill-rule:evenodd;clip-rule:evenodd;fill:#FFFFFF;" width="3.355" height="2.25"/>
							</g>
						</g>
					</g>
				</g>
			</g>
			<g>
				<g>
					<g>
						<g>
							<g>
								<rect x="196.225" y="257.766" style="fill:none;" width="22.498" height="22.046"/>
							</g>
							<rect x="206.678" y="259.395" style="fill-rule:evenodd;clip-rule:evenodd;fill:#FFFFFF;" width="2.25" height="4.092"/>
							<rect x="206.678" y="266.733" style="fill-rule:evenodd;clip-rule:evenodd;fill:#FFFFFF;" width="2.25" height="4.093"/>
							<rect x="206.678" y="274.049" style="fill-rule:evenodd;clip-rule:evenodd;fill:#FFFFFF;" width="2.25" height="4.093"/>
						</g>
					</g>
				</g>
			</g>
		</g>
		<g>
			<rect x="203.036" y="376.64" style="opacity:0.4;fill:#FFFFFF;" width="137.062" height="20.768"/>
			
				<text transform="matrix(1 0 0 1 219.4836 391.5294)" style="opacity:0.4;fill:#FFFFFF; font-family:'Montserrat-ExtraBold'; font-size:12.7099px; letter-spacing:2;">CONNECTED</text>
		</g>
		
			<text transform="matrix(1 0 0 1 283.1649 95.1655)" style="fill:#6833A3; font-family:'Montserrat-Black'; font-size:13.6081px; letter-spacing:2;">PYTHON</text>
		<path style="fill:none;stroke:#6833A3;stroke-width:3;stroke-miterlimit:10;" d="M437.386,201.154
			c0,2.726-2.209,4.936-4.935,4.936c-2.726,0-4.936-2.21-4.936-4.936c0-2.726,2.21-4.936,4.936-4.936
			C435.177,196.218,437.386,198.428,437.386,201.154z"/>
		<path style="fill:none;stroke:#6833A3;stroke-width:2;stroke-miterlimit:10;" d="M457.477,161.307
			c0,1.992-1.614,3.607-3.607,3.607s-3.606-1.614-3.606-3.607s1.614-3.607,3.606-3.607S457.477,159.315,457.477,161.307z"/>
		<path style="fill:none;stroke:#6833A3;stroke-width:2;stroke-miterlimit:10;" d="M98.334,119.342c0,1.992-1.614,3.606-3.606,3.606
			c-1.992,0-3.606-1.614-3.606-3.606c0-1.992,1.614-3.607,3.606-3.607C96.72,115.735,98.334,117.35,98.334,119.342z"/>
	</g>
</g>
</svg>
